<svg width="512" height="444" fill="none" xmlns="http://www.w3.org/2000/svg"><g clip-path="url(#a)"><path opacity=".2" d="M455.651 54.18c49.482 63.847 31.292 162.415-5.343 228.296-27.858 50.111-69.327 79.999-117.156 92.209-39.561 10.047-83.573 12.082-123.77 7.122-37.907-4.706-75.56-17.552-107.743-43.37-14.12-11.319-27.094-25.055-38.161-40.572-10.304-14.499-24.297-34.721-27.222-54.18-1.018-6.868.254-14.881 4.706-19.205 5.597-5.469 13.611-3.816 20.48-1.399 8.777 3.18 17.428 7.249 25.823 11.955 16.155 9.412 29.13 15.39 45.539 2.417 23.788-18.696 42.105-46.931 57.497-75.675 16.155-30.015 28.621-63.337 46.43-92.081 38.797-62.575 113.721-88.012 172.235-55.453 17.682 9.92 33.837 23.275 46.685 39.936Z" fill="#300B8D"/><path d="M468.752 38.919v307.404a9.39 9.39 0 0 1-9.413 9.411H73.526a9.39 9.39 0 0 1-9.413-9.411V38.919a9.391 9.391 0 0 1 9.413-9.412H459.34a9.39 9.39 0 0 1 9.413 9.412Z" fill="#240E8C" stroke="#751DFF" stroke-width=".5" stroke-miterlimit="10"/><path d="M64.113 60.031h404.639v295.704H67.929c-2.162 0-3.816-1.654-3.816-3.816V60.031Z" fill="#6900FF"/><g opacity=".5" fill="#6900FF"><path d="M86 44.999c0 2.679-2.357 5-5.5 5s-5.5-2.143-5.5-5 2.357-5 5.5-5 5.5 2.143 5.5 5ZM104 44.999c0 2.679-2.143 5-5 5s-5-2.143-5-5 2.143-5 5-5 5 2.143 5 5ZM123 44.999c0 2.679-2.357 5-5.5 5s-5.5-2.143-5.5-5 2.357-5 5.5-5 5.5 2.143 5.5 5Z"/></g><path d="M94.513 299.646h343.326c9.031 0 16.409-7.376 16.409-16.406V131.763c0-9.03-7.378-16.407-16.409-16.407H94.513c-9.032 0-16.41 7.377-16.41 16.407V283.24c-.127 9.03 7.25 16.406 16.41 16.406Z" fill="#0E074F"/><g opacity=".4" fill="#D9D9D9"><path d="M196.153 187.215h-33.328c-1.272 0-2.544-.636-2.544-1.399 0-.89 1.018-1.399 2.544-1.399h33.328c1.272 0 2.544.636 2.544 1.399s-1.272 1.399-2.544 1.399ZM196.153 194.337h-33.328c-1.272 0-2.544-.636-2.544-1.399 0-.89 1.018-1.399 2.544-1.399h33.328c1.272 0 2.544.636 2.544 1.399s-1.272 1.399-2.544 1.399ZM179.998 201.459h-17.173c-1.272 0-2.544-.636-2.544-1.399 0-.89 1.018-1.399 2.544-1.399h17.173c1.272 0 2.544.636 2.544 1.399 0 .89-1.272 1.399-2.544 1.399ZM145.397 268.026h-42.359c-2.417 0-4.452-1.908-4.452-4.451v-29.126c0-2.416 1.908-4.451 4.452-4.451h42.359c2.417 0 4.453 1.908 4.453 4.451v29.126c0 2.543-2.036 4.451-4.453 4.451ZM196.153 242.716h-33.328c-1.272 0-2.544-.635-2.544-1.526 0-.89 1.018-1.526 2.544-1.526h33.328c1.272 0 2.544.636 2.544 1.526 0 .891-1.272 1.526-2.544 1.526ZM196.153 250.934h-33.328c-1.272 0-2.544-.636-2.544-1.526s1.018-1.526 2.544-1.526h33.328c1.272 0 2.544.636 2.544 1.526s-1.272 1.526-2.544 1.526ZM179.998 258.692h-17.173c-1.272 0-2.544-.636-2.544-1.526s1.018-1.526 2.544-1.526h17.173c1.272 0 2.544.636 2.544 1.526s-1.272 1.526-2.544 1.526Z"/></g><rect opacity=".5" x="218" y="123" width="229" height="169" rx="8" fill="#6900FF"/><path opacity=".9" d="M314.45 87.561h-33.582c-.763 0-1.399-.763-1.399-1.78 0-1.018.636-1.781 1.399-1.781h33.582c.763 0 1.399.763 1.399 1.78 0 1.018-.636 1.781-1.399 1.781ZM363.423 87.561h-33.582c-.764 0-1.4-.763-1.4-1.78 0-1.018.636-1.781 1.4-1.781h33.582c.763 0 1.399.763 1.399 1.78 0 1.018-.636 1.781-1.399 1.781ZM412.27 87.561h-33.582c-.763 0-1.399-.763-1.399-1.78 0-1.018.636-1.781 1.399-1.781h33.582c.764 0 1.4.763 1.4 1.78 0 1.018-.636 1.781-1.4 1.781Z" fill="#D9D9D9"/><path d="M329.969 223.717c-11.958 0-21.625-9.666-21.625-21.621 0-11.955 9.667-21.621 21.625-21.621 11.957 0 21.624 9.666 21.624 21.621-.127 11.955-9.794 21.621-21.624 21.621Z" fill="#13A8E7"/><path d="m342.435 201.206-18.445-10.684a.388.388 0 0 0-.509 0c-.127.127-.254.255-.254.509v21.24c0 .254.127.381.254.508.127 0 .127.128.254.128.128 0 .128 0 .255-.128l9.286-5.214 9.159-5.342c.127-.127.254-.254.254-.509 0-.254-.127-.508-.254-.508Z" fill="#fff"/><path fill-rule="evenodd" clip-rule="evenodd" d="M466.077 259.837c3.18-3.434 5.342-7.631 4.961-12.464-1.018-13.608-21.498-10.683-25.569-3.815-3.943 6.868-3.561 24.419 1.654 25.564 2.035.509 6.487-.763 10.94-3.18l-2.799 18.315h16.537l-5.724-24.42Z" fill="#CE844D"/><path fill-rule="evenodd" clip-rule="evenodd" d="M478.289 242.795c.509-.509.764-1.145 1.018-1.908.254-.636.509-1.399.636-2.162.382-1.399.382-3.053-.763-4.197-.891-.891-2.163-1.272-3.435-1.399-.763 0-1.653 0-2.417.254-.763.254-1.399.763-2.162 1.018 0-1.527-.254-3.18-1.145-4.452-.763-1.272-2.162-2.035-3.562-2.162-1.526-.254-3.053.127-4.325.763-.381.127-.636.382-1.017.509-.255.127-.509.381-.891.381-.381.128-.509-.127-.763-.381-.254-.255-.636-.509-.89-.763-1.4-1.018-3.308-1.399-4.961-.763-.764.254-1.527.763-2.036 1.399-.508.508-.763 1.399-1.399 1.78-.254.127-.509 0-.763-.254l-1.145-.763c-.509-.382-1.145-.636-1.654-.763-.89-.128-2.162-.128-2.417.89-.127.381 0 .89 0 1.272 0 .508.128 1.144.128 1.653 0 .382.127.89.127 1.272 0 .254.127.636.127.89-.127.255-.763.127-1.018.127-.508 0-1.017.128-1.526.255-.382.127-.763.381-.89.763a.806.806 0 0 0 0 .763v.763c-.636-.254-3.053-1.017-3.308.127-.127.382.127.763.255 1.145.254.509.636 1.017 1.144 1.526.891 1.018 1.781 1.908 2.926 2.544-1.272.509-1.526 2.035-.509 2.925.509.382 1.145.509 1.781.509.255 0 .509-.127.763 0 .128 0 .255.127.382.127.891 0 1.781-.127 2.671-.254 1.527-.255 2.926-1.018 4.071-1.908.254-.254.509-.382.89-.382.382 0 .636.128 1.018.128.89 0 1.781-.382 2.544-.636 0 1.017.382 2.289.891 3.179.381.763 1.144.89 1.908 1.018 2.544.254 2.035.254 4.579.254-2.417.509-2.035.509-4.452 1.018-1.145.254-.255.89.254 1.399.763.763 1.4 1.78 1.781 2.798 1.145-1.399 3.307-2.417 5.216-1.908 2.035.509 3.561 3.052 2.162 4.96-.763 1.017-2.162 1.526-3.307 1.908.89.89 1.145 2.162 1.653 3.179.255.509.636 1.145 1.272 1.272.255.127.509.127.636.255.255.254.255.381.509.636 1.145.763 2.799.635 3.816-.255.891-.89.636-2.162-.127-3.052 1.145-.509 3.308-1.018 2.799-2.671 2.544-.127 8.65-3.943 5.342-6.741 1.908-1.017 3.562-3.307 2.417-5.469-.89-1.526-3.053-2.289-4.834-2.416Z" fill="#0B0456"/><g opacity=".6" fill-rule="evenodd" clip-rule="evenodd" fill="#A6A4F7"><path opacity=".2" d="M495.082 353.191h-38.798l-14.756 90.047H512l-16.918-90.047Z"/><path opacity=".2" d="M495.082 353.191h-14.629l-8.65 90.047H512l-16.918-90.047Z"/></g><path fill-rule="evenodd" clip-rule="evenodd" d="M387.847 350.521c-5.724-3.18-15.137.89-15.137 5.469 0 13.481 13.356 77.073 13.992 81.143.636 4.07 8.141 5.087 8.523 0 .636-8.013.382-35.993-.891-48.966-.508-5.342.382-10.429-.127-14.88 6.997 11.701 17.809 28.362 32.438 50.11l7.886-3.307c-6.233-18.95-11.321-32.432-15.264-40.317-6.869-13.354-13.23-24.928-15.901-28.871-4.325-6.359-11.703-4.197-15.519-.381Z" fill="#CE844D"/><path fill-rule="evenodd" clip-rule="evenodd" d="m434.023 409.533-27.221-59.776c-6.488-9.666-24.805 2.035-22.643 7.631 5.088 12.845 30.784 54.18 32.183 57.996l17.681-5.851Z" fill="#140666"/><path fill-rule="evenodd" clip-rule="evenodd" d="M435.495 416.325c1.615 1.27 2.819 2.338 3.328 3.219.572.991 1.353 2.597 2.214 4.597-1.212.699-12.483 6.618-33.685 17.976-2.581-2.182-2.968-3.868-1.222-5.17 1.809-1.191 3.224-2.301 4.372-3.111l11.594-14.77c.267-.301.661-.382.962-.115l2.437 1.677c2.208-.246 3.895-.632 4.95-1.094.881-.509 1.966-1.429 3.016-2.916.47-.712 1.322-.763 2.034-.293-.064-.11-.064-.11 0 0ZM397.008 433.953c.763 1.908 1.144 3.307 1.144 4.324 0 1.145-.254 2.798-.636 5.087h-38.797c-1.018-3.052-.382-4.705 1.781-4.96 2.162-.254 3.943-.508 5.469-.636l18.064-7.504c.381-.127.763 0 .89.382l1.145 2.671c2.035.89 3.689 1.272 4.961 1.272 1.017 0 2.417-.382 4.198-1.145.508-.509 1.399-.254 1.781.509 0-.127-.128-.127 0 0Z" fill="#300B8D" opacity=".7"/><path fill-rule="evenodd" clip-rule="evenodd" d="M370.674 360.568c0 16.915 8.649 56.469 8.649 60.158h18.7c-2.799-35.23-3.689-53.163-2.926-53.545 1.145-.508 48.974 4.452 63.221 4.452 20.607 0 29.13-12.083 29.893-34.34h-40.96c-8.268.763-51.772 8.903-67.928 11.701-6.741 1.272-8.649 6.868-8.649 11.574Z" fill="#1E0489"/><path fill-rule="evenodd" clip-rule="evenodd" d="m343.455 269.885 36.381-35.103c2.035-2.035 4.579-3.053 6.869-3.053 3.053 0 5.978 1.654 7.759 4.833l16.664 28.871c3.307 5.596 2.162 13.991-2.671 18.696l-35.109 33.831c-4.834 4.706-11.067 3.307-15.901-.508l-16.663-28.871c-3.435-5.596-2.163-14.118 2.671-18.696Z" fill="url(#b)"/><path fill-rule="evenodd" clip-rule="evenodd" d="m441.02 297.611-23.915-12.082c-3.943-4.324-7.887-7.758-11.703-10.175-1.145-.509-3.18-.763-1.272 2.417 1.908 3.179 3.816 6.613 2.799 7.504-1.018 1.017-3.435-.382-4.58 1.271-.763 1.145 3.435 2.798 12.594 5.088l17.427 14.753 8.65-8.776Zm-37.399 10.175-10.558-5.342c-1.526-5.214-3.18-7.758-5.342-7.885-1.527-.636 1.144 5.85-1.781 5.342-2.926-.509-10.304-5.596-11.576-4.579-1.908 1.526-.254 6.105 1.781 8.394 3.689 4.324 6.615 5.724 14.12 7.758 3.943 1.018 8.141 3.053 12.593 6.105l.763-9.793Z" fill="#CE844D"/><path fill-rule="evenodd" clip-rule="evenodd" d="M452.724 294.813c-8.396-.127-19.59-1.781-31.42-8.776l-4.707 9.666c8.269 7.504 19.717 13.736 29.894 13.482 7.886-.128 11.957-9.03 6.233-14.372Z" fill="url(#c)"/><path fill-rule="evenodd" clip-rule="evenodd" d="M441.402 310.329c-8.905 2.035-23.788-.381-44.776-7.249-5.216 9.92-7.633 17.043-7.251 21.24 17.936 8.648 33.328 12.591 46.048 12.845-.382 6.995.509 13.609 3.562 19.714 6.36 12.464 43.377.89 55.843 3.179 7.759-23.401-7.251-32.94-7.251-47.948 0-16.407-14.247-41.716-16.409-41.716h-19.081c-1.018 12.464-6.233 26.327-10.685 39.935Z" fill="url(#d)"/><path fill-rule="evenodd" clip-rule="evenodd" d="M39.326 157.779c-4.527-3.133-8.023-7.332-9.136-12.959-3.142-16.144 19.805-18.473 26.246-11.639 6.44 6.833 11.382 27.236 6.215 30.068-2.047 1.207-7.11.983-12.66-.559l8.646 20.464-17.692 4.739-1.62-30.114Z" fill="#FCBB89"/><path fill-rule="evenodd" clip-rule="evenodd" d="M59.082 136.252c-.386-.95-1.207-2.047-1.839-2.931-.82-1.097-1.764-2.161-2.765-2.946-1.878-1.604-4.092-2.986-6.363-4.089-4.165-1.782-8.893-2.227-12.94-.616-2.022.805-3.88 2.225-5.361 4.07-1.268 1.656-2.372 3.927-4.304 4.576-2.18.716-4.795-.69-6.967-1.425-2.45-.792-4.803-1.215-7.392-1.049-4.097.439-7.543 2.811-9.39 6.73-2.027 4.229-2.733 9.949.451 13.968.6.761 7.368 14.222 9.237 15.302 1.87 1.079 3.787 1.355 5.885 1.32 1.295-.083 2.68-.322 3.998-.807.827-.354 1.498-.797 2.448-1.183 3.107 1.274 6.13 1.255 9.137.186 2.268-.871 4.84-2.087 6.255-4.177 1.627-2.28.969-4.737-.247-7.308.557.114 2.065-.158.941-.911-.467-.27-1.147-.351-1.705-.465-.557-.114-1.147-.351-1.77-.711-2.092-1.414-1.515-5.651.409-6.825 2.808-1.805 4.575 2.33 7.083 2.843 1.393.285 2.514-.937 3.144-2.027.9-1.558 1.364-3.262 1.673-5.057.253-1.516.382-2.999.667-4.392.081-.68.603-2.664-.086-3.269 2.08-1.084 4.678-.727 6.817-.115.87.294 1.615.621 2.214 1.383.156.089.444.671.69.605.524-.009.146-.434.08-.68Z" fill="#190649"/><path fill-rule="evenodd" clip-rule="evenodd" d="M21.371 324.174c18.318 5.087 34.218 7.758 47.575 7.758 13.356 0 25.695-3.942 37.144-11.828-17.936-5.214-32.82-7.885-44.395-7.885-11.576 0-25.06 3.942-40.324 11.955Z" fill="#176084"/><path fill-rule="evenodd" clip-rule="evenodd" d="M72.508 337.529c-.127-.255-.382-.509-.382-.891-2.544-6.486-35.108-76.819-39.052-89.664h44.268c2.925 9.666 16.409 70.841 18.317 82.924 5.979 19.205 18.19 81.398 19.717 85.722 1.654 4.579-7.632 9.284-10.049 3.688-3.944-8.903-18.19-37.646-22.261-52.654-3.944-13.99-9.032-22.003-10.558-29.125Z" fill="#FCBB89"/><path fill-rule="evenodd" clip-rule="evenodd" d="M102.557 418.718c-.89 2.289-1.272 3.943-1.272 5.087 0 1.4.255 3.434.636 5.978h43.123c1.145-3.688.508-5.723-1.908-5.978-2.417-.254-4.453-.508-5.979-.763l-20.098-8.903c-.382-.127-.891 0-1.018.382l-1.272 3.18c-2.29 1.017-4.071 1.526-5.47 1.526-1.145 0-2.671-.509-4.707-1.399-.763-.382-1.653 0-2.035.89 0-.127 0-.127 0 0Z" fill="url(#e)"/><path fill-rule="evenodd" clip-rule="evenodd" d="M102.557 418.718c-.89 2.289-1.272 3.943-1.272 5.087 0 1.4.255 3.434.636 5.978h43.123c1.145-3.688.508-5.723-1.908-5.978-2.417-.254-4.453-.508-5.979-.763l-20.098-8.903c-.382-.127-.891 0-1.018.382l-1.272 3.18c-2.29 1.017-4.071 1.526-5.47 1.526-1.145 0-2.671-.509-4.707-1.399-.763-.382-1.653 0-2.035.89 0-.127 0-.127 0 0Z" fill="url(#f)"/><path fill-rule="evenodd" clip-rule="evenodd" d="M34.729 332.696c0-.255-.128-.636 0-1.018.381-6.868-1.145-87.63.381-100.857l33.964 18.442c-1.145 10.048-8.65 69.188-11.703 81.144-2.29 20.095-20.607 84.195-20.862 88.774-.254 4.833-10.685 5.469-10.685-.636 0-9.666 1.145-35.993 3.307-51.382 2.036-14.372 4.198-27.218 5.598-34.467Z" fill="#FCBB89"/><path fill-rule="evenodd" clip-rule="evenodd" d="M23.563 416.811c-1.654 1.78-2.799 3.179-3.18 4.197-.51 1.272-1.145 3.179-1.781 5.85 1.526.636 14.628 6.36 39.56 17.297 2.544-2.925 2.672-5.087.636-6.232-2.035-1.272-3.816-2.289-5.215-3.179l-14.756-16.153c-.254-.254-.763-.381-1.017 0l-2.417 2.29c-2.417 0-4.325-.128-5.597-.763-1.018-.509-2.29-1.527-3.816-3.18-.764-.763-1.781-.763-2.417-.127 0 0 0-.127 0 0Z" fill="url(#g)"/><path fill-rule="evenodd" clip-rule="evenodd" d="M36.382 249.136c17.3-4.96 33.583-4.96 48.974 0 5.343 24.547 18.318 34.213 20.607 71.605-26.076 12.973-58.132-9.157-84.972 3.434-7.505-17.679 3.18-60.031 15.391-75.039Z" fill="url(#h)"/><path fill-rule="evenodd" clip-rule="evenodd" d="m62.633 186.797 25.549-16.256c4.068-5.496 8.084-9.82 12.174-12.995 1.312-.619 3.545-1.141 1.658 2.807-1.887 3.949-3.73 8.148-2.506 9.224 1.223 1.076 3.758-.662 5.239 1.143.994 1.246-3.501 3.588-13.486 7.027l-18.247 18.844-10.381-9.794Z" fill="#FCBB89"/><path fill-rule="evenodd" clip-rule="evenodd" d="M49.413 184.349c9.3-.735 21.466-3.525 34.178-12.74l5.982 11.215c-8.504 9.635-20.87 17.885-32.034 18.303-8.842.397-14.021-9.926-8.126-16.778Z" fill="url(#i)"/><path d="m155.11 215.31-58.437-29.607c-3.257-1.621-4.576-6.168-2.46-10.286l23.856-47.083c2.034-3.846 6.323-5.893 9.749-4.043l58.312 29.629c3.257 1.622 4.575 6.168 2.46 10.286l-23.878 46.958c-1.99 4.096-6.345 5.768-9.602 4.146Z" fill="url(#j)"/><path d="m151.58 204.826-44.968-22.813c-2.542-1.231-3.559-4.797-1.915-7.928l18.395-36.305c1.54-2.984 4.893-4.479 7.457-3.123l44.968 22.813c2.542 1.23 3.558 4.797 1.915 7.928l-18.395 36.305c-1.518 3.109-4.915 4.353-7.457 3.123Z" stroke="#fff" stroke-width="2" stroke-miterlimit="10" opacity=".6"/><path opacity=".3" d="m164.474 172.461-17.664 18.483c-1.968 2.025-5.49 1.096-6.227-1.615l-8.565-43.435c-.781-2.962-4.531-3.721-6.433-1.32l-15.012 29.122c-1.489 1.813-.877 4.546 1.245 5.593l39.103 19.583c1.827.84 4.038.192 4.878-1.635l11.475-22.816c.862-1.701-1.496-3.352-2.8-1.96Z" fill="#fff"/><path opacity=".5" d="M151.813 171.721a6.742 6.742 0 1 0-2.343-13.275 6.742 6.742 0 0 0 2.343 13.275Z" fill="#fff"/><path fill-rule="evenodd" clip-rule="evenodd" d="m128.71 201.107 10.42-8.294c.546-6.425 1.873-9.887 4.127-10.285 1.622-1.061-.037 7.11 3.109 5.91 3.147-1.201 10.104-8.626 11.703-7.617 2.313 1.401 1.531 7.221-.112 10.352-3.103 5.842-6.073 8.045-13.796 11.86-4.06 1.878-8.253 5.2-12.645 9.59l-2.806-11.516Z" fill="#FFAF78"/><path fill-rule="evenodd" clip-rule="evenodd" d="M79.43 213.927c10.19.657 25.989-4.969 47.456-17.277 7.713 10.78 11.824 18.709 12.332 23.785-17.856 13.738-33.95 21.353-47.685 24.033-2.087 9.408-.577 16.504.203 23.857-4.305 15.869-54.24.779-67.431 5.817 6.054-34.517 8.11-31.651 4.972-49.437-3.424-19.415 6.977-51.986 9.232-52.383l20.92-3.688c3.756 14.707 12.412 30.099 20 45.293Z" fill="url(#k)"/><path fill-rule="evenodd" clip-rule="evenodd" d="M88.152 170.172c4.07-5.469 8.141-9.92 12.212-13.1 1.272-.635 3.562-1.144 1.654 2.798-1.908 3.943-3.69 8.14-2.544 9.285 1.144 1.145 3.816-.763 5.215 1.145.89 1.271-3.562 3.561-13.484 7.122l-3.053-7.25Z" fill="#FCBB89"/><path opacity=".9" fill-rule="evenodd" clip-rule="evenodd" d="M365.46 265.688c.128-.509.382-1.018.764-1.526.508-.509 1.017-.636 1.272-.509.254.127.89.763 1.653 1.526l13.993 16.152c.763.891 1.145 1.399 1.272 1.781.509 1.017.254 2.035-.636 3.052-.382.382-.763.509-1.018.509-.381 0-.636-.127-.89-.381-.255-.255-.636-.636-1.145-1.272l-13.993-16.28c-.636-.763-1.144-1.272-1.272-1.653 0-.382-.127-.891 0-1.399Zm-.381 5.214-10.177 21.622 2.036 4.197 17.808-6.487-2.417-4.833-12.211 5.088 7.378-14.627-2.417-4.96Zm28.366-17.17-17.808 6.487 2.544 4.96 12.084-5.087-7.25 14.626 2.417 4.833 10.049-21.621-2.036-4.198Z" fill="url(#l)"/><path d="M132.546 91.72H91.841c-3.562 0-6.36-2.925-6.36-6.359 0-3.561 2.925-6.359 6.36-6.359h40.705c3.562 0 6.361 2.925 6.361 6.36.127 3.433-2.799 6.358-6.361 6.358Z" fill="url(#m)"/><circle cx="439" cy="86" r="7" fill="#D9D9D9"/></g><defs><linearGradient id="h" x1="18.514" y1="285.247" x2="106.02" y2="285.247" gradientUnits="userSpaceOnUse"><stop stop-color="#06EDA4"/><stop offset="1" stop-color="#00AAEB"/></linearGradient><linearGradient id="b" x1="338.856" y1="276.323" x2="264.707" y2="276.323" gradientUnits="userSpaceOnUse"><stop stop-color="#F3B412"/><stop offset="1" stop-color="#EE2616"/></linearGradient><linearGradient id="d" x1="432.499" y1="327.001" x2="344.999" y2="302.001" gradientUnits="userSpaceOnUse"><stop stop-color="#06EDA4"/><stop offset="1" stop-color="#00AAEB"/></linearGradient><linearGradient id="e" x1="101.219" y1="421.933" x2="145.6" y2="421.933" gradientUnits="userSpaceOnUse"><stop stop-color="#6900FF"/><stop offset="1" stop-color="#B600FF"/></linearGradient><linearGradient id="f" x1="101.191" y1="421.898" x2="145.509" y2="421.898" gradientUnits="userSpaceOnUse"><stop stop-color="#FA00FF"/><stop offset="1" stop-color="#B600FF"/></linearGradient><linearGradient id="g" x1="18.513" y1="430.182" x2="60.128" y2="430.182" gradientUnits="userSpaceOnUse"><stop stop-color="#FA00FF"/><stop offset="1" stop-color="#B600FF"/></linearGradient><linearGradient id="c" x1="416.577" y1="297.735" x2="454.998" y2="297.998" gradientUnits="userSpaceOnUse"><stop stop-color="#00AAEB"/><stop offset="1" stop-color="#06EDA4"/></linearGradient><linearGradient id="i" x1="46.892" y1="186.408" x2="88.932" y2="178.994" gradientUnits="userSpaceOnUse"><stop stop-color="#EE2616"/><stop offset=".183" stop-color="#EE2B16"/><stop offset=".389" stop-color="#EF3815"/><stop offset=".606" stop-color="#F04F14"/><stop offset=".829" stop-color="#F26E13"/><stop offset="1" stop-color="#F38B12"/></linearGradient><linearGradient id="j" x1="93.205" y1="169.764" x2="188.195" y2="153.009" gradientUnits="userSpaceOnUse"><stop stop-color="#FF954B"/><stop offset="1" stop-color="#FF0E95"/></linearGradient><linearGradient id="k" x1="24.275" y1="222.344" x2="137.43" y2="202.386" gradientUnits="userSpaceOnUse"><stop stop-color="#F38B12"/><stop offset="1" stop-color="#EE2616"/></linearGradient><linearGradient id="l" x1="355.005" y1="275.181" x2="395.597" y2="275.249" gradientUnits="userSpaceOnUse"><stop stop-color="#F2F2F2"/><stop offset="1" stop-color="#F2F2F2" stop-opacity=".64"/></linearGradient><linearGradient id="m" x1="85.466" y1="85.283" x2="138.977" y2="85.283" gradientUnits="userSpaceOnUse"><stop stop-color="#06EDA4"/><stop offset="1" stop-color="#00AAEB"/></linearGradient><clipPath id="a"><path fill="#fff" d="M0 0h512v444H0z"/></clipPath></defs></svg>